HIERARCHY
ROOT Hips
{
	OFFSET	0.00	0.00	0.00
	CHANNELS 6 Xposition Yposition Zposition Zrotation Xrotation Yrotation
	JOINT LeftUpLeg
	{
		OFFSET	 0.126116	-0.065224	 0.014019
		CHANNELS 3 Zrotation Xrotation Yrotation
		JOINT LeftLeg
		{
			OFFSET	 0.000000	 0.569914	 0.000000
			CHANNELS 3 Zrotation Xrotation Yrotation
			JOINT LeftFoot
			{
				OFFSET	 0.000000	 0.544423	 0.000000
				CHANNELS 3 Zrotation Xrotation Yrotation
				JOINT LeftToeBase
				{
					OFFSET	 0.000000	 0.207117	 0.000000
					CHANNELS 3 Zrotation Xrotation Yrotation
					End Site
					{
						OFFSET	 0.000000	 0.207117	 0.000000
					}
				}
			}
		}
	}
	JOINT RightUpLeg
	{
		OFFSET	-0.124023	-0.065224	 0.008373
		CHANNELS 3 Zrotation Xrotation Yrotation
		JOINT RightLeg
		{
			OFFSET	 0.000000	 0.570047	 0.000000
			CHANNELS 3 Zrotation Xrotation Yrotation
			JOINT RightFoot
			{
				OFFSET	 0.000000	 0.544354	 0.000000
				CHANNELS 3 Zrotation Xrotation Yrotation
				JOINT RightToeBase
				{
					OFFSET	 0.000000	 0.207540	 0.000000
					CHANNELS 3 Zrotation Xrotation Yrotation
					End Site
					{
						OFFSET	 0.000000	 0.207540	 0.000000
					}
				}
			}
		}
	}
	JOINT Spine
	{
		OFFSET	 0.000184	 0.117403	 0.007763
		CHANNELS 3 Zrotation Xrotation Yrotation
		JOINT Spine1
		{
			OFFSET	 0.000000	 0.137269	 0.000000
			CHANNELS 3 Zrotation Xrotation Yrotation
			JOINT Spine2
			{
				OFFSET	 0.000000	 0.156879	 0.000000
				CHANNELS 3 Zrotation Xrotation Yrotation
				JOINT LeftShoulder
				{
					OFFSET	 0.080501	 0.160143	 0.002496
					CHANNELS 3 Zrotation Xrotation Yrotation
					JOINT LeftArm
					{
						OFFSET	 0.000000	 0.164363	 0.000000
						CHANNELS 3 Zrotation Xrotation Yrotation
						JOINT LeftForeArm
						{
							OFFSET	 0.000000	 0.364576	 0.000000
							CHANNELS 3 Zrotation Xrotation Yrotation
							JOINT LeftHand
							{
								OFFSET	 0.000000	 0.360812	 0.000000
								CHANNELS 3 Zrotation Xrotation Yrotation
								JOINT LeftHandIndex1
								{
									OFFSET	 0.000000	 0.086006	 0.000000
									CHANNELS 3 Zrotation Xrotation Yrotation
									JOINT LeftHandIndex2
									{
										OFFSET	 0.000000	 0.047237	 0.000000
										CHANNELS 3 Zrotation Xrotation Yrotation
										JOINT LeftHandIndex3
										{
											OFFSET	-0.004284	 0.038165	 0.000551
											CHANNELS 3 Zrotation Xrotation Yrotation
											End Site
											{
												OFFSET	-0.004284	 0.038165	 0.000551
											}
										}
									}
								}
							}
						}
					}
				}
				JOINT Neck
				{
					OFFSET	 0.000000	 0.176489	 0.000000
					CHANNELS 3 Zrotation Xrotation Yrotation
					JOINT Head
					{
						OFFSET	 0.000000	 0.077941	 0.001747
						CHANNELS 3 Zrotation Xrotation Yrotation
						End Site
						{
							OFFSET	 0.000000	 0.077941	 0.001747
						}
					}
				}
				JOINT RightShoulder
				{
					OFFSET	-0.080363	 0.159706	-0.000306
					CHANNELS 3 Zrotation Xrotation Yrotation
					JOINT RightArm
					{
						OFFSET	 0.000000	 0.164196	 0.000000
						CHANNELS 3 Zrotation Xrotation Yrotation
						JOINT RightForeArm
						{
							OFFSET	 0.000000	 0.365611	 0.000000
							CHANNELS 3 Zrotation Xrotation Yrotation
							JOINT RightHand
							{
								OFFSET	 0.000000	 0.360648	 0.000000
								CHANNELS 3 Zrotation Xrotation Yrotation
								JOINT RightHandIndex1
								{
									OFFSET	 0.000000	 0.069977	 0.000000
									CHANNELS 3 Zrotation Xrotation Yrotation
									JOINT RightHandIndex2
									{
										OFFSET	 0.000000	 0.052305	 0.000000
										CHANNELS 3 Zrotation Xrotation Yrotation
										JOINT RightHandIndex3
										{
											OFFSET	 0.009002	 0.042196	 0.000782
											CHANNELS 3 Zrotation Xrotation Yrotation
											End Site
											{
												OFFSET	 0.009002	 0.042196	 0.000782
											}
										}
									}
								}
							}
						}
					}
				}
			}
		}
	}
}
MOTION
Frames:    13
Frame Time: 0.03333334
 0.522420	 1.025820	-0.135533	 36.812770	-31.745000	-103.419600	-25.884700	 81.813500	-163.025800	 33.018700	-80.396450	 37.605110	 41.186440	 35.196940	-48.935250	 2.342588	 51.270960	-8.929578	 40.044370	 78.311360	 115.734900	-14.652840	-71.186000	-15.020680	-58.371080	 53.562340	 74.660290	-1.641014	 33.231710	 2.843097	 4.050771	 11.023780	-0.679441	-14.574100	 6.895609	 5.727333	 7.173181	 23.215840	 12.333170	-109.430700	 7.183757	 92.424160	 38.030190	 47.235390	-21.131430	 4.416812	-0.229297	 0.204171	-0.830105	-12.003610	 22.719670	-5.057138	 4.571628	-7.989199	-6.716560	 6.319775	 1.666462	 4.963066	-4.014628	-0.346955	 6.540366	-5.697905	 3.408870	 7.812713	 2.579111	-42.501790	 83.272970	 11.329180	-88.201490	-27.112410	 34.588840	 53.973900	-68.079280	-4.906542	 9.301868	 20.764890	 25.145020	 19.302830	-3.920315	 15.021570	-1.361614	 14.305660	 21.287780	-6.306988	-8.239867	-2.131385	 0.447455
 0.578317	 1.060086	-0.163866	 27.114890	-21.899380	-93.678360	-169.158200	 66.061910	-39.299410	 93.377350	-84.723260	 99.411340	 58.176140	 34.311450	-64.614900	 0.788858	 46.283640	-5.763781	 102.036000	 68.630550	 64.834750	-12.699440	-68.593250	-13.311130	-60.388500	 53.018130	 74.692340	-1.643812	 33.277300	 2.845878	 4.233004	 11.040510	 0.023794	-14.617300	-1.719935	 3.443123	 13.225020	 23.920550	 10.681240	-105.409700	 5.247009	 91.549630	 32.557870	 57.848140	-17.989030	 4.463203	-0.234220	 0.463757	-11.593760	 0.294486	 28.582970	-3.570397	 2.767328	-8.223184	-6.850936	 7.197108	 1.837563	 4.963066	-4.014628	-0.346955	 9.852188	-0.052762	 2.863915	 3.424736	 5.495207	-42.072360	 86.766460	 8.316502	-90.476670	-37.141810	 41.360490	 64.081730	-72.845840	-5.052926	 7.392653	 19.130650	 30.675790	 3.309468	-3.406828	 15.942660	-1.855943	 14.278590	 21.555090	-6.370867	-8.239867	-2.131385	 0.447455
 0.615153	 1.107659	-0.185577	 18.901090	-13.616880	-82.103840	-169.965700	 28.082080	-40.968330	 23.346630	-76.902800	 31.507730	 45.768190	 35.787070	-56.023310	-0.119128	 41.479650	-3.348645	 123.381600	 51.445140	 54.685680	-9.067822	-61.328360	-10.108780	-60.092830	 51.212450	 72.802380	-1.646601	 33.322500	 2.848624	 4.345441	 8.849786	 0.585132	-16.896220	-3.887415	 1.811661	 19.402270	 21.425270	 9.292562	-101.665700	 3.215613	 90.887070	 26.321290	 65.001960	-14.055380	 4.505554	-0.239498	 0.713329	-21.604850	 11.033840	 33.588210	-2.196072	 1.568949	-8.373247	-6.981857	 8.027019	 2.001735	 4.963066	-4.014628	-0.346955	 13.162000	 5.068647	 1.937984	-0.824203	 8.001904	-41.854180	 89.853130	 5.149923	-92.393490	-45.746210	 33.011100	 77.876190	-63.905490	-4.750511	 6.783605	 13.487690	 40.144020	-7.440751	-2.914864	 16.797030	-2.341208	 14.256430	 21.835980	-6.439906	-8.239867	-2.131385	 0.447455
 0.679523	 1.136157	-0.169318	 16.070960	-8.006598	-65.410230	-174.195000	 14.601520	-31.764850	 7.497386	-54.754530	 12.762320	 51.320500	 51.881230	-80.790220	 1.992126	 39.631000	-6.769819	 124.146800	 34.466710	 65.285100	-6.471785	-52.597480	-7.439233	-53.282360	 48.959830	 64.896820	-1.650124	 33.376090	 2.851568	 3.093433	 7.346671	 1.327537	-10.795770	-2.674860	 2.537129	 13.387660	 14.025510	 6.167350	-101.505400	-0.402770	 91.575650	 24.950130	 62.412410	-12.774340	 4.605030	-0.246217	 0.846353	-12.839600	 11.481110	 29.054680	-2.561301	 12.762380	-7.735101	-7.028762	 8.173590	 2.031260	 4.963066	-4.014628	-0.346955	 16.199500	 1.883065	-0.548869	-2.452629	 3.188788	-44.537350	 88.537990	 0.197920	-91.692200	-41.521130	 6.932768	 90.007900	-21.888310	-1.975709	 8.439044	-1.110640	 28.548850	-11.828430	-2.912508	 16.652810	-2.590897	 14.325160	 22.502780	-6.643380	-8.239867	-2.131385	 0.447455
 0.759937	 1.142132	-0.159490	 13.419660	-4.468559	-52.476350	-176.001600	 15.203780	-21.935850	 6.052733	-48.833350	 10.487330	 68.494000	 51.765290	-98.337140	 1.838153	 30.491790	-7.458784	 125.698000	 25.571960	 72.099920	-5.039736	-45.547160	-5.686771	-48.245540	 45.010890	 57.263470	-1.712261	 33.131570	 2.999292	 1.974264	 6.228598	 2.141567	-5.684556	 1.056940	 2.970923	 7.284164	 8.796370	 2.594933	-101.573900	-2.588072	 94.570080	 34.095360	 56.631910	-23.474170	 4.730308	-0.252807	 0.945501	-2.609709	 7.912146	 30.274620	-3.468502	 14.779950	-7.332532	-7.077046	 8.330615	 2.061018	 4.963066	-4.014628	-0.346955	 16.748330	-4.165189	-3.226683	-1.082107	-1.787552	-46.175040	 87.727890	-4.263754	-91.016370	-33.039420	-3.634772	 93.405400	-4.715165	-0.435831	 7.970329	-7.371936	 12.219400	-8.831593	-2.910307	 16.516360	-2.827094	 14.356090	 22.976560	-6.782483	-8.239867	-2.131385	 0.447455
 0.838898	 1.156074	-0.150805	 10.812270	-2.740199	-43.742780	-178.339300	 18.007870	-15.451640	 5.880668	-48.016310	 9.737109	 78.231920	 49.293230	-102.340300	 1.397964	 23.660690	-7.473994	 131.811900	 24.464230	 66.909000	-4.755618	-43.889700	-4.936589	-47.222820	 45.970690	 56.561580	-1.820545	 32.504070	 3.313009	 1.051278	 5.537094	 2.628046	-3.089093	 3.081815	 2.337197	 3.968143	 6.241099	-0.814645	-103.266900	-6.561467	 97.785850	 40.498560	 50.296180	-30.548560	 4.798700	-0.255330	 1.013711	 5.393962	 4.749323	 28.688320	-4.629070	 14.705670	-6.932693	-7.127407	 8.499901	 2.092413	 4.963066	-4.014628	-0.346955	 15.784810	-8.201952	-6.349629	 1.024191	-3.828737	-46.884650	 87.742450	-5.331942	-90.838900	-27.060590	-4.222063	 90.082260	-4.534451	-0.419155	 6.998456	-2.456219	-3.097815	 0.394923	-2.908230	 16.381800	-3.059976	 14.373630	 23.383470	-6.899115	-8.239867	-2.131385	 0.447455
 0.901261	 1.189712	-0.137787	 8.186249	-2.616534	-39.961080	 179.313800	 16.419590	-12.239290	 4.966134	-43.195200	 7.614424	 75.576110	 48.712010	-94.958660	 1.398004	 23.660660	-7.474016	 147.133100	 30.057630	 44.094990	-5.127228	-46.038980	-4.969353	-51.272560	 51.372460	 63.087410	-1.958351	 31.481040	 3.784518	 0.658557	 5.461048	 2.479131	-4.729670	 1.066790	 1.291732	 4.874249	 6.375536	-3.384356	-107.092700	-13.664230	 99.847880	 41.904230	 44.755720	-30.915700	 4.784042	-0.253691	 1.047109	 7.885064	 3.470715	 22.054770	-5.920540	 15.592460	-6.395407	-7.177746	 8.674199	 2.124567	 4.963066	-4.014628	-0.346955	 14.071300	-7.852475	-9.772429	 2.671625	-1.640067	-46.630950	 88.723480	-1.641287	-91.409480	-22.422680	-4.137012	 79.247780	-4.548874	-0.420495	 5.763165	 8.593841	-11.042200	 13.652830	-2.906348	 16.253100	-3.282654	 14.387770	 23.757840	-7.005855	-8.239867	-2.131385	 0.447455
 0.941583	 1.215272	-0.126062	 4.987570	-3.210863	-39.228210	 179.184700	 11.782280	-11.465790	 4.074522	-37.619870	 5.525990	 72.398130	 48.660950	-88.850620	 1.398022	 23.660640	-7.474026	 156.654300	 27.302760	 31.756070	-4.076499	-39.517440	-3.450582	-47.178150	 50.802380	 58.832640	-1.659525	 29.987570	 3.632241	 0.070908	 5.032001	 2.456861	-3.767668	 1.280011	 0.725899	 3.015748	 4.424362	-4.404945	-108.893900	-19.215500	 101.423100	 44.150540	 41.775410	-34.315560	 4.794838	-0.253911	 1.006029	 7.350850	-0.456872	 16.444970	-6.733192	 15.566680	-6.096172	-7.227281	 8.854109	 2.159128	 4.963066	-4.014628	-0.346955	 11.597580	-8.647894	-11.702430	 2.036991	 0.653785	-45.478640	 90.718020	 0.893568	-91.978780	-20.564800	-3.793827	 71.282640	-4.532251	-0.418963	 5.584157	 10.794720	-10.252320	 22.278490	-2.904253	 16.129860	-3.495937	 14.402060	 24.116230	-7.108360	-8.239867	-2.131385	 0.447455
 0.970650	 1.238074	-0.115621	 1.925303	-3.809092	-38.610220	 179.584000	 6.599977	-10.697590	 3.227685	-31.411430	 3.283841	 68.640640	 48.740100	-82.454700	 1.398039	 23.660630	-7.474036	 163.451400	 21.698450	 20.976440	-2.889844	-30.327320	-1.733759	-40.028770	 49.005310	 52.199710	-1.376019	 28.550610	 3.488412	-0.471255	 4.617096	 2.054494	-1.989999	 1.665551	-0.245280	 0.829383	 2.483070	-5.377277	-110.501200	-24.547800	 102.810300	 46.697320	 39.439370	-37.799680	 4.796349	-0.253623	 0.965561	 5.545469	-4.534675	 10.271780	-7.503967	 15.525540	-5.813831	-7.274814	 9.026385	 2.192407	 4.963066	-4.014628	-0.346955	 9.189367	-9.348848	-13.564620	 1.323471	 2.830668	-44.287190	 92.667600	 3.284009	-92.606040	-19.601800	-3.401367	 63.581470	-4.509970	-0.416918	 5.715834	 12.044820	-10.461560	 30.567460	-2.902685	 16.011960	-3.699856	 14.416420	 24.459070	-7.206787	-8.239867	-2.131385	 0.447455
 0.985275	 1.248797	-0.108438	 1.358498	-4.007600	-39.942870	 179.040100	 4.313116	-12.250190	 2.726200	-27.288370	 2.005092	 66.926570	 48.743850	-79.186740	 1.398039	 23.660620	-7.474037	 165.252100	 18.460590	 17.224580	-2.107886	-23.111490	-0.676221	-36.853180	 46.836530	 48.091440	-1.283686	 27.935190	 3.432081	-0.872788	 4.257507	 1.872690	-0.676489	 1.480390	-0.405927	-1.330482	 1.305199	-5.255186	-111.182900	-27.279610	 102.788600	 47.369590	 39.269970	-37.802960	 4.796333	-0.253666	 0.892019	 3.291529	-1.364819	 7.732306	-7.537723	 15.767030	-5.751306	-7.304831	 9.082788	 2.204936	 4.963066	-4.014628	-0.346955	 7.456526	-9.931815	-13.805480	 0.991619	 3.111210	-43.481870	 92.837920	 5.336149	-93.144800	-18.690320	-1.919331	 60.778620	-4.495833	-0.415605	 5.343023	 9.104383	-8.824775	 33.509390	-2.900797	 15.897700	-3.897550	 14.430970	 24.791230	-7.302426	-8.239867	-2.131385	 0.447455
 0.986100	 1.251819	-0.104371	 1.084355	-4.088734	-41.302060	 178.931200	 3.256432	-13.802330	 2.515511	-25.455870	 0.801358	 65.935600	 49.401840	-77.572360	 1.398039	 23.660610	-7.474038	 165.904300	 16.104160	 14.200310	-1.599075	-17.941530	 0.393871	-34.427200	 45.589820	 45.098280	-1.207188	 27.396610	 3.384222	-1.297629	 3.790519	 1.467806	 1.762798	 3.053478	-1.038830	-3.918115	-0.610443	-5.034485	-111.799600	-29.724780	 102.664500	 48.256920	 38.960460	-37.836430	 4.799547	-0.253564	 0.821090	 1.496238	 2.694331	 4.705282	-7.530519	 16.010740	-5.703829	-7.332310	 9.129972	 2.215703	 4.963066	-4.014628	-0.346955	 5.849245	-10.475330	-13.961730	 0.689456	 3.285703	-42.735300	 92.920590	 7.260280	-93.651710	-18.395040	-0.772087	 58.302320	-4.479599	-0.414053	 4.996831	 5.562774	-7.802597	 36.710480	-2.899347	 15.789750	-4.084202	 14.445320	 25.104960	-7.393087	-8.239867	-2.131385	 0.447455
 0.986277	 1.253787	-0.103111	 0.846411	-4.107548	-42.036280	 178.961400	 2.579286	-14.526340	 2.414649	-24.268460	 0.363086	 65.299800	 49.582580	-76.613070	 1.398031	 23.660610	-7.474034	 166.371100	 14.678300	 13.064940	-1.323445	-15.002040	 0.880530	-33.526910	 44.710990	 43.581250	-1.184550	 27.238410	 3.369962	-1.483350	 3.569089	 1.361619	 2.911386	 3.515586	-1.240047	-5.295878	-1.450231	-4.925577	-111.943900	-30.266370	 102.604200	 48.584300	 38.726980	-37.761830	 4.790141	-0.253618	 0.708003	 0.138694	 5.985999	 3.933942	-7.478188	 16.385730	-5.670010	-7.345434	 9.082162	 2.208761	 4.963066	-4.014628	-0.346955	 5.478291	-10.426580	-13.578410	 0.186377	 2.667259	-42.781780	 92.927970	 8.016950	-93.876790	-18.158040	-0.157026	 57.437540	-4.474139	-0.413542	 4.338157	 3.539922	-7.995728	 37.512170	-2.897695	 15.685890	-4.263851	 14.459650	 25.406770	-7.480554	-8.239867	-2.131385	 0.447455
 0.983851	 1.254037	-0.103642	 0.649332	-4.085927	-42.515580	 179.192900	 2.309098	-14.732290	 2.340503	-23.890130	 0.115220	 64.974080	 49.675190	-76.339690	 1.398021	 23.660610	-7.474030	 166.694400	 14.411130	 12.677650	-1.285302	-14.588630	 1.025288	-33.595870	 44.695020	 43.391060	-1.182279	 27.225460	 3.368296	-1.576536	 3.419164	 1.315085	 3.636768	 3.857383	-1.362380	-6.221645	-2.007143	-4.844511	-111.904700	-30.090350	 102.577300	 48.818360	 38.347840	-37.722350	 4.773983	-0.252984	 0.584078	-1.091362	 8.964831	 3.805348	-7.411058	 16.796220	-5.642758	-7.352844	 9.001067	 2.195534	 4.963066	-4.014628	-0.346955	 5.572981	-10.162010	-13.006930	-0.370646	 1.775515	-43.128400	 92.903850	 8.319025	-93.989430	-18.054690	 0.145161	 57.201690	-4.472121	-0.413412	 3.461621	 2.181869	-8.528884	 37.665300	-2.896210	 15.587080	-4.434742	 14.473790	 25.693890	-7.564027	-8.239867	-2.131385	 0.447455
